<svg xmlns:xlink="http://www.w3.org/1999/xlink" xmlns="http://www.w3.org/2000/svg" style="width:100%;height:100%" viewBox="0 0 1315 510" preserveAspectRatio="none" width="1315" height="510"><defs><svg data-name="Layer 1" viewBox="0 0 1315.29 510.24" id="svg-1457461203_925"><path d="M686.4 218.42H530.26V76.22h-68.69v348.29h68.69V274.14H686.4v150.37h68.69V76.22H686.4v142.2zm269.29 82.15c0 40.83-9.61 76.86-53.81 76.86-36.99 0-42.28-27.86-42.28-62.45V166.05h-66.3v163.34c0 63.41 24.98 101.36 86.95 101.36 32.19 0 60.53-13.93 75.43-40.35v34.11h66.29V166.05h-66.29v134.51Zm247.18-140.28c-32.67 0-60.53 14.41-74.46 38.91V76.22h-66.29v348.29h66.29v-32.67c16.81 28.82 47.56 38.91 74.46 38.91 61.49 0 112.41-52.85 112.41-135.47s-49.96-134.99-112.41-134.99Zm-16.33 219.54c-36.51 0-60.53-31.23-60.53-84.55s24.02-84.07 60.53-84.07c34.59 0 59.09 34.11 59.09 84.55s-24.5 84.07-59.09 84.07ZM391.48 143.39 195.6 30.76v107.72l102.22 58.61-.05 116.43-.08-.04-102.21 58.59-101.53-58.25V196.67l101.57-58.2-93.94-53.86L.28 142.96 0 367.74l93.95-53.85v107.64l101.53 57.94 196.15-112.14-93.84-53.8 93.92-53.85-.23-116.29z"></path></svg></defs><use href="#svg-1457461203_925"></use></svg>