<svg xmlns:xlink="http://www.w3.org/1999/xlink" xmlns="http://www.w3.org/2000/svg" style="width:100%;height:100%" viewBox="0 0 1243 510" preserveAspectRatio="none" width="1243" height="510"><defs><svg data-name="Layer 1" viewBox="0 0 1243.03 510.24" id="svg-198537649_1178"><path d="M580.27 78.7h-118.1v345.25h68.1V302.52h51.91c80 0 150-21.43 150-109.53 0-104.29-81.43-114.29-151.91-114.29Zm6.19 170.96h-56.19V132.04h51.43c36.67 0 80.48 4.76 80.48 61.43 0 45.72-33.81 56.19-75.72 56.19Zm384.77 24.28c0-86.19-50-112.86-110.48-112.86-66.19 0-107.15 37.14-112.38 87.62h61.43c1.43-28.57 22.38-41.43 47.62-41.43 26.67 0 48.1 13.81 48.1 53.34v4.29c-100.95 11.43-168.58 29.52-168.58 90 0 46.67 43.34 75.24 92.38 75.24 38.57 0 65.24-11.43 83.81-38.1 1.43 12.86 2.38 23.81 4.29 31.91h60.48c-5.24-21.43-7.62-44.29-7.62-84.76 0-22.86.95-57.62.95-65.24Zm-63.81 51.91c0 37.62-17.14 59.52-58.57 59.52-30 0-44.29-15.24-44.29-33.81 0-28.57 29.05-37.14 102.86-44.76v19.05Zm264.28-158.1-59.52 184.77-58.1-184.77h-71.9l98.1 255.24-2.86 7.14c-11.43 27.14-20.95 26.67-42.86 26.67h-24.76v50.48h27.62c63.81 0 76.67-11.43 107.15-90.95l93.81-248.58h-66.67Zm-780.22-24.36L195.6 30.76v107.72l102.22 58.61-.05 116.43-.08-.04-102.21 58.59-101.53-58.25V196.67l101.57-58.2-93.94-53.86L.28 142.96 0 367.74l93.95-53.85v107.64l101.53 57.94 196.15-112.14-93.84-53.8 93.92-53.85-.23-116.29z"></path></svg></defs><use href="#svg-198537649_1178"></use></svg>