<svg xmlns:xlink="http://www.w3.org/1999/xlink" xmlns="http://www.w3.org/2000/svg" style="width:100%;height:100%" viewBox="0 0 2062 510" preserveAspectRatio="none" width="2062" height="510"><defs><svg data-name="Layer 1" viewBox="0 0 2061.71 510.24" id="svg-790688154_1618"><path d="m148.87 222.69-3.8-.95v-95.55c27.1 5.23 49.92 24.72 49.92 64.18h63.7c0-63.23-44.69-108.39-113.62-114.57V40.62h-27.1v34.7C63.3 79.12 6.26 107.17 6.26 171.82c0 61.32 46.59 86.99 93.65 98.4l18.06 4.28v106.48c-28.52-3.8-52.77-25.67-52.77-69.88H1.03C-.4 378.13 48.57 425.67 117.97 430.9v40.41h27.1v-39.93c62.27-3.8 118.37-38.03 118.37-104.58 0-69.88-63.23-91.27-114.57-104.11Zm-30.9-7.13-3.8-.95c-26.62-6.18-46.59-19.97-46.59-46.11 0-29 25.2-41.83 50.39-43.26v90.32Zm27.1 165.9V281.15c35.65 9.51 57.05 21.87 57.05 49.92 0 34.23-27.1 48.96-57.05 50.39ZM422.21 81.02H304.32v344.65h67.98V304.45h51.82c79.86 0 149.74-21.39 149.74-109.34 0-104.11-81.29-114.09-151.65-114.09Zm6.18 170.66H372.3V134.26h51.34c36.6 0 80.34 4.75 80.34 61.32 0 45.64-33.75 56.09-75.59 56.09ZM764.48 74.84c-102.68 0-168.76 71.31-168.76 178.27s66.08 178.74 168.76 178.74 168.76-71.78 168.76-178.74S867.16 74.84 764.48 74.84Zm0 302.82c-53.72 0-98.4-43.26-98.4-124.55s44.69-124.07 98.4-124.07 98.4 43.26 98.4 124.07-44.69 124.55-98.4 124.55Zm469.2-192.05c0-72.26-43.26-104.58-156.88-104.58H963.66v344.65h67.98V290.67h72.26l68.45 135.01h75.59l-76.54-149.27c43.26-18.54 62.27-50.87 62.27-90.8Zm-145.94 52.29h-56.09V134.27h52.77c46.11 0 79.39 11.89 79.39 51.82 0 34.23-22.82 51.82-76.06 51.82Zm439.24-156.88H1246.5v55.15h106.01v289.5h67.98v-289.5h106.49V81.02zm75.11 0-128.35 344.65h69.41l24.24-69.88h134.06l24.24 69.88h73.68L1670.54 81.02h-68.45Zm-15.21 219.15 47.54-135.96 47.54 135.96h-95.08Zm303.28 70.36V81.02h-67.97v344.65h235.78v-55.14h-167.81z"></path></svg></defs><use href="#svg-790688154_1618"></use></svg>