<svg xmlns="http://www.w3.org/2000/svg" width="249" height="206" fill="none"><rect width="248.747" height="206" fill="#fff" rx="14.579"/><path fill="#000" d="M124.35 29.157v9.859l9.356 5.364-.005 10.658 8.597-4.93-.02-10.643-17.928-10.308Zm-17.876 10.269-.026 20.572 8.599-4.928V44.34l9.295-5.326-8.597-4.93-9.271 5.34Z"/><path fill="#000" d="m115.046 55.063.001 9.858 9.292 5.303 17.952-10.263-8.597-4.93-9.355 5.363-9.293-5.331Zm-34.241 47.15-2.887-.558c-3.772-.787-6.855-2.69-6.855-6.724 0-4.428 4.625-6.691 8.987-6.691 4.724 0 8.365 2.132 9.316 7.085h-4.034c-.69-2.854-3.15-3.674-5.511-3.674-1.837 0-4.56.82-4.56 3.149 0 1.837 1.477 2.755 3.543 3.149l2.92.558c4.165.787 8.134 2.361 8.134 7.117 0 4.822-4.756 7.25-9.447 7.25-5.674 0-9.48-3.051-10.004-8.299h4.1c.754 3.28 2.821 4.887 6.101 4.887 2.821 0 5.084-1.279 5.084-3.575 0-2.46-2.624-3.247-4.887-3.674Zm11.232-13.547h3.904v3.936h-3.904v-3.936Zm0 6.134h3.904v17.647h-3.904V94.8Zm19.023 2.362V94.8h3.904v15.876c0 2.854-.722 4.92-2.132 6.232-1.411 1.312-3.51 1.903-6.266 1.903-3.87 0-6.92-1.542-7.544-5.412h3.871c.36 1.672 1.41 2.328 3.772 2.328 1.738 0 2.854-.492 3.51-1.279.656-.754.885-1.837.885-2.985v-2.066c-1.049 1.738-2.886 2.755-5.248 2.755-4.199 0-7.676-3.379-7.676-8.889 0-5.511 3.477-8.857 7.676-8.857 2.362 0 4.199 1.017 5.248 2.756Zm.164 6.101c0-3.937-2.033-5.74-4.559-5.74-2.624 0-4.461 2.197-4.461 5.74 0 3.641 1.837 5.806 4.461 5.806 2.526 0 4.559-1.837 4.559-5.806Zm11.034-8.463v2.46c1.017-1.837 2.854-2.854 5.347-2.854 4.264 0 6.002 2.756 6.002 6.954v11.087h-3.903v-10.135c0-2.395-.328-4.724-3.346-4.724-3.018 0-4.1 2.296-4.1 5.478v9.381h-3.903V94.8h3.903Zm31.894 17.647v-2.427c-1.016 1.837-2.821 2.854-5.215 2.854-4.199 0-5.904-2.756-5.904-6.954V94.8h3.903v10.168c0 2.395.328 4.724 3.247 4.724 2.92 0 3.969-2.296 3.969-5.478V94.8h3.904v17.647h-3.904Zm11.053-8.823c0 4.067 2.001 6.068 4.56 6.068 2.755 0 4.362-2.296 4.362-6.068 0-3.707-1.607-6.036-4.362-6.036-2.559 0-4.56 1.968-4.56 6.036Zm-3.739-8.824h3.903v2.362c1.05-1.739 2.887-2.756 5.249-2.756 4.329 0 7.577 3.576 7.577 9.218 0 5.674-3.248 9.25-7.577 9.25-2.362 0-4.199-1.017-5.249-2.756v8.07h-3.903V94.8Z"/><rect width="205.011" height="43.736" x="21.868" y="141.295" fill="#F6F6F6" rx="21.868"/><path fill="#BFBFBF" d="M45.237 168.696v-10.569h7.319v1.414h-5.657v3.018h5.336v1.399H46.9v3.324h5.657v1.414h-7.319Zm10.034-7.843v1.137c.452-.773 1.24-1.283 2.464-1.283 1.895 0 2.624 1.225 2.624 3.047v4.942h-1.516v-4.534c0-1.122-.175-2.186-1.618-2.186-1.327 0-1.954.933-1.954 2.507v4.213h-1.516v-7.843h1.516Zm6.998 0v-2.012h1.516v2.012h1.546v1.152h-1.546v4.475c0 .802.132 1.006.89 1.006h.641v1.21h-1.108c-1.589 0-1.939-.393-1.939-2.012v-4.679h-1.195v-1.152h1.195Zm7.481 6.735c1.108 0 1.72-.452 2.056-1.195h1.53c-.35 1.297-1.545 2.493-3.528 2.493-2.522 0-3.907-1.852-3.907-4.126 0-2.435 1.633-4.053 3.864-4.053 2.42 0 3.834 1.983 3.674 4.534H67.46c.16 1.458 1.05 2.347 2.29 2.347Zm0-5.642c-1.18 0-2.04.598-2.26 2.1h4.374c-.044-1.152-.875-2.1-2.114-2.1Zm8.966-1.108v1.575a7.582 7.582 0 0 0-.787-.044c-1.166 0-1.778.569-1.778 2.216v4.111h-1.517v-7.843h1.487v1.385c.409-.889 1.181-1.4 2.173-1.414.13 0 .291 0 .422.014Zm4.37 10.41h-.73v-1.21h.598c.817 0 1.166-.073 1.545-1.181l.059-.175-2.829-7.829h1.677l1.895 5.846 1.852-5.846h1.574l-2.77 8.018c-.656 1.852-1.093 2.377-2.872 2.377Zm7.313-6.444c0 1.924 1.065 2.799 2.202 2.799 1.166 0 2.216-.889 2.216-2.799 0-1.939-1.05-2.814-2.216-2.814-1.137 0-2.202.831-2.202 2.814Zm2.202-4.097c1.866 0 3.82 1.254 3.82 4.097 0 2.828-1.954 4.082-3.82 4.082-1.852 0-3.805-1.254-3.805-4.082 0-2.843 1.953-4.097 3.805-4.097Zm9.881 7.989v-1.108c-.451.802-1.21 1.298-2.39 1.298-1.852 0-2.566-1.137-2.566-3.047v-4.986h1.516v4.578c0 1.122.19 2.172 1.56 2.172 1.283 0 1.895-.933 1.895-2.493v-4.257h1.516v7.843h-1.531Zm7.351-7.858v1.575a7.593 7.593 0 0 0-.788-.044c-1.166 0-1.778.569-1.778 2.216v4.111h-1.516v-7.843h1.487v1.385c.408-.889 1.18-1.4 2.172-1.414.131 0 .291 0 .423.014Zm7.343 6.75c1.107 0 1.72-.452 2.055-1.195h1.531c-.35 1.297-1.545 2.493-3.528 2.493-2.522 0-3.907-1.852-3.907-4.126 0-2.435 1.633-4.053 3.863-4.053 2.42 0 3.834 1.983 3.674 4.534h-5.977c.16 1.458 1.049 2.347 2.289 2.347Zm0-5.642c-1.181 0-2.041.598-2.26 2.1h4.373c-.043-1.152-.874-2.1-2.113-2.1Zm6.4 2.537v4.213h-1.516v-7.843h1.516v1.137c.452-.773 1.195-1.283 2.318-1.283 1.225 0 1.924.51 2.274 1.385.656-.991 1.56-1.385 2.595-1.385 1.837 0 2.551 1.225 2.551 3.047v4.942h-1.516v-4.534c0-1.122-.189-2.186-1.545-2.186-1.21 0-1.808.933-1.808 2.507v4.213h-1.516v-4.534c0-1.122-.189-2.186-1.545-2.186-1.225 0-1.808.933-1.808 2.507Zm16.26 1.05v-.569c-2.435.233-3.718.583-3.718 1.589 0 .715.554 1.167 1.487 1.167 1.239 0 2.231-.627 2.231-2.187Zm-2.566 3.353c-1.589 0-2.799-.875-2.799-2.304 0-1.909 2.26-2.434 5.292-2.74v-.161c0-1.385-.729-1.851-1.691-1.851-1.05 0-1.648.525-1.706 1.501h-1.531c.117-1.676 1.502-2.668 3.295-2.668 2.026 0 3.178.977 3.164 3.324 0 .19-.03 1.546-.03 1.881 0 1.181.073 2.129.219 2.828h-1.458a9 9 0 0 1-.131-1.035c-.466.802-1.341 1.225-2.624 1.225Zm5.605-8.033h1.516v7.843h-1.516v-7.843Zm0-2.726h1.516v1.676h-1.516v-1.676Zm4.784 0v10.569h-1.517v-10.569h1.517Zm9.775 7.406v-.569c-2.435.233-3.718.583-3.718 1.589 0 .715.554 1.167 1.487 1.167 1.239 0 2.231-.627 2.231-2.187Zm-2.566 3.353c-1.589 0-2.799-.875-2.799-2.304 0-1.909 2.259-2.434 5.292-2.74v-.161c0-1.385-.729-1.851-1.691-1.851-1.05 0-1.648.525-1.706 1.501h-1.531c.117-1.676 1.502-2.668 3.295-2.668 2.026 0 3.178.977 3.164 3.324 0 .19-.03 1.546-.03 1.881 0 1.181.073 2.129.219 2.828h-1.458a9 9 0 0 1-.131-1.035c-.466.802-1.341 1.225-2.624 1.225Zm10.897-6.881v-3.878h1.516v10.569h-1.516v-1.108c-.481.817-1.283 1.298-2.45 1.298-1.822 0-3.382-1.531-3.382-4.097 0-2.566 1.56-4.082 3.382-4.082 1.167 0 1.969.481 2.45 1.298Zm.058 2.784c0-1.939-.991-2.813-2.158-2.813-1.268 0-2.114 1.049-2.114 2.813 0 1.764.846 2.828 2.114 2.828 1.167 0 2.158-.889 2.158-2.828Zm8.505-2.784v-3.878h1.517v10.569h-1.517v-1.108c-.481.817-1.282 1.298-2.449 1.298-1.822 0-3.382-1.531-3.382-4.097 0-2.566 1.56-4.082 3.382-4.082 1.167 0 1.968.481 2.449 1.298Zm.059 2.784c0-1.939-.992-2.813-2.158-2.813-1.268 0-2.114 1.049-2.114 2.813 0 1.764.846 2.828 2.114 2.828 1.166 0 2.158-.889 2.158-2.828Zm7.295-3.951v1.575a7.575 7.575 0 0 0-.787-.044c-1.166 0-1.779.569-1.779 2.216v4.111H177.6v-7.843h1.487v1.385c.408-.889 1.181-1.4 2.172-1.414.132 0 .292 0 .423.014Zm4.075 6.75c1.108 0 1.721-.452 2.056-1.195h1.531c-.35 1.297-1.545 2.493-3.528 2.493-2.522 0-3.907-1.852-3.907-4.126 0-2.435 1.633-4.053 3.863-4.053 2.42 0 3.834 1.983 3.674 4.534h-5.977c.16 1.458 1.049 2.347 2.288 2.347Zm0-5.642c-1.18 0-2.041.598-2.259 2.1h4.373c-.043-1.152-.874-2.1-2.114-2.1Zm10.876 1.094h-1.502c-.218-.817-.889-1.123-1.778-1.123-.744 0-1.546.306-1.546.948 0 .583.379.816 1.094.977l1.122.218c1.473.306 2.785.788 2.785 2.333 0 1.589-1.487 2.493-3.295 2.493-1.997 0-3.193-1.152-3.382-2.624h1.545c.219.889.773 1.414 1.881 1.414.991 0 1.735-.408 1.735-1.108 0-.715-.685-1.021-1.502-1.181l-1.181-.233c-1.181-.234-2.289-.744-2.289-2.231 0-1.385 1.473-2.23 3.179-2.23 1.589 0 2.828.831 3.134 2.347Zm7.368 0h-1.502c-.218-.817-.889-1.123-1.778-1.123-.744 0-1.546.306-1.546.948 0 .583.379.816 1.094.977l1.122.218c1.473.306 2.785.788 2.785 2.333 0 1.589-1.487 2.493-3.295 2.493-1.997 0-3.193-1.152-3.382-2.624h1.545c.219.889.773 1.414 1.881 1.414.991 0 1.735-.408 1.735-1.108 0-.715-.686-1.021-1.502-1.181l-1.181-.233c-1.181-.234-2.289-.744-2.289-2.231 0-1.385 1.473-2.23 3.178-2.23 1.589 0 2.829.831 3.135 2.347Z"/></svg>