<svg xmlns="http://www.w3.org/2000/svg" width="138" height="206" fill="none"><rect width="136.674" height="206" x=".747" fill="#262626" rx="14.579"/><rect width="36.447" height="36.447" x="50.861" y="73.843" fill="#9FFFB4" rx="18.223"/><path stroke="#000" stroke-linecap="round" stroke-linejoin="round" stroke-width="2.085" d="M77.425 86.331 65.956 97.8l-5.213-5.213"/><path fill="#fff" d="m37.995 126.605-1.621-.328c-1.878-.382-3.663-1.439-3.663-3.662 0-2.497 2.587-3.663 4.829-3.663 2.442 0 4.5 1.111 5.03 3.772h-2.005c-.438-1.549-1.859-2.041-3.116-2.041-.966 0-2.624.455-2.624 1.84 0 1.094.856 1.659 2.004 1.896l1.567.328c2.114.437 4.428 1.221 4.428 3.899 0 2.625-2.532 3.991-5.084 3.991-3.043 0-5.139-1.694-5.43-4.464h2.04c.383 1.822 1.586 2.733 3.463 2.733 1.731 0 2.916-.802 2.916-2.096 0-1.366-1.33-1.913-2.734-2.205Zm12.598 5.795v-1.385c-.565 1.003-1.512 1.622-2.988 1.622-2.314 0-3.207-1.421-3.207-3.808v-6.233h1.895v5.722c0 1.404.237 2.716 1.95 2.716 1.603 0 2.369-1.167 2.369-3.117v-5.321h1.895v9.804h-1.914Zm8.15-9.986c2.24 0 3.954 1.585 4.245 3.499h-1.895c-.2-1.112-1.203-1.877-2.442-1.877-1.367 0-2.624 1.075-2.624 3.462 0 2.424 1.258 3.517 2.624 3.517 1.221 0 2.242-.71 2.515-1.877h1.914c-.401 2.06-2.297 3.499-4.465 3.499-2.843 0-4.61-2.15-4.61-5.12 0-2.898 1.84-5.103 4.737-5.103Zm9.903 0c2.242 0 3.955 1.585 4.246 3.499h-1.895c-.2-1.112-1.203-1.877-2.442-1.877-1.367 0-2.624 1.075-2.624 3.462 0 2.424 1.257 3.517 2.624 3.517 1.221 0 2.242-.71 2.515-1.877h1.913c-.4 2.06-2.296 3.499-4.464 3.499-2.843 0-4.61-2.15-4.61-5.12 0-2.898 1.84-5.103 4.737-5.103Zm9.977 8.601c1.385 0 2.15-.564 2.57-1.494h1.913c-.437 1.622-1.932 3.116-4.41 3.116-3.153 0-4.884-2.314-4.884-5.157 0-3.043 2.041-5.066 4.83-5.066 3.024 0 4.792 2.478 4.592 5.667h-7.472c.2 1.823 1.312 2.934 2.861 2.934Zm0-7.052c-1.476 0-2.551.747-2.825 2.624h5.467c-.054-1.439-1.093-2.624-2.642-2.624Zm13.594 1.367H90.34c-.273-1.021-1.111-1.403-2.223-1.403-.93 0-1.932.382-1.932 1.184 0 .729.474 1.021 1.367 1.221l1.403.273c1.84.383 3.481.984 3.481 2.916 0 1.986-1.859 3.116-4.119 3.116-2.496 0-3.99-1.439-4.227-3.28h1.931c.274 1.112.966 1.768 2.351 1.768 1.24 0 2.169-.51 2.169-1.385 0-.893-.857-1.276-1.877-1.476l-1.476-.292c-1.476-.291-2.861-.929-2.861-2.788 0-1.731 1.84-2.788 3.972-2.788 1.987 0 3.536 1.039 3.918 2.934Zm9.21 0H99.55c-.273-1.021-1.111-1.403-2.223-1.403-.93 0-1.932.382-1.932 1.184 0 .729.474 1.021 1.367 1.221l1.403.273c1.841.383 3.481.984 3.481 2.916 0 1.986-1.859 3.116-4.119 3.116-2.496 0-3.99-1.439-4.227-3.28h1.931c.274 1.112.966 1.768 2.351 1.768 1.24 0 2.169-.51 2.169-1.385 0-.893-.857-1.276-1.877-1.476l-1.477-.292c-1.476-.291-2.86-.929-2.86-2.788 0-1.731 1.84-2.788 3.972-2.788 1.987 0 3.535 1.039 3.918 2.934Zm3.306 3.207h-1.221l-.383-5.54v-3.808h1.968v3.808l-.364 5.54Zm.528 3.863h-2.278v-2.278h2.278v2.278Z"/></svg>