<svg xmlns:xlink="http://www.w3.org/1999/xlink" xmlns="http://www.w3.org/2000/svg" style="width:100%;height:100%" viewBox="0 0 1777 510" preserveAspectRatio="none" width="1777" height="510"><defs><svg data-name="Layer 1" viewBox="0 0 1776.74 510.24" id="svg209033072_1505"><path d="m812.69 78.7-47.36 254.01-53.1-254.01h-79.89l-48.31 252.58L532.36 78.7h-70.79l77.01 346.81h80.85l52.62-258.31 52.62 258.31h80.84L882.53 78.7h-69.84zm297.05 196.13c0-86.58-50.23-113.37-110.98-113.37-66.49 0-107.63 37.31-112.89 88.02h61.71c1.43-28.7 22.48-41.62 47.84-41.62 26.79 0 48.31 13.87 48.31 53.58v4.31c-101.41 11.48-169.34 29.66-169.34 90.41 0 46.88 43.53 75.58 92.8 75.58 38.75 0 65.54-11.48 84.19-38.27 1.43 12.92 2.39 23.92 4.31 32.05h60.75c-5.26-21.53-7.65-44.49-7.65-85.15 0-22.96.96-57.88.96-65.54Zm-64.1 52.14c0 37.79-17.22 59.79-58.84 59.79-30.14 0-44.49-15.31-44.49-33.96 0-28.7 29.18-37.31 103.33-44.97v19.14ZM1149.59 78.7h66.01v346.81h-66.01zm108.19 0h66.01v346.81h-66.01zm228.17 83.71c-76.06 0-129.16 56.92-129.16 133.46s48.32 135.86 131.07 135.86c70.32 0 107.63-42.57 121.51-80.84h-67.93c-13.39 22.48-33.49 29.66-54.06 29.66-31.57 0-61.23-21.53-65.06-65.54h189.91c2.39-90.89-46.88-152.6-126.29-152.6Zm-62.67 107.16c5.26-43.53 37.31-58.84 62.19-58.84 27.75 0 58.36 15.31 59.8 58.84h-121.98Zm350.64-55.97v-45.45h-53.58V98.31h-66.01v69.84h-36.36v45.45h36.36v142.55c0 51.19 11 69.36 70.32 69.36h48.32v-47.36h-20.09c-23.44 0-32.53-5.26-32.53-31.57V213.6h53.58ZM391.48 143.39 195.6 30.76v107.72l102.22 58.61-.05 116.43-.08-.04-102.21 58.59-101.53-58.25V196.67l101.57-58.2-93.94-53.86L.28 142.96 0 367.74l93.95-53.85v107.64l101.53 57.94 196.15-112.14-93.84-53.8 93.92-53.85-.23-116.29z"></path></svg></defs><use href="#svg209033072_1505"></use></svg>